<?xml version="1.0" encoding="UTF-8"?>
<svg id="Layer_2" data-name="Layer 2" xmlns="http://www.w3.org/2000/svg" viewBox="0 0 480 480">
  <g id="Layer_1-2" data-name="Layer 1">
    <path id="facebook" d="M480,60V420c0,33.14-26.86,60-60,60h-105v-165h47.7c7.2,0,13.35-5.1,14.7-12l9-45c1.8-9.3-5.25-18-14.7-18h-56.7v-60c0-16.5,13.5-30,30-30h30c8.25,0,15-6.75,15-15v-45c0-8.25-6.75-15-15-15h-45c-49.71,0-90,40.29-90,90v75h-45c-8.25,0-15,6.75-15,15v45c0,8.25,6.75,15,15,15h45v165H60c-33.14,0-60-26.86-60-60V60C0,26.86,26.86,0,60,0H420c33.14,0,60,26.86,60,60Z"/>
  </g>
</svg>