<?xml version="1.0" encoding="UTF-8"?>
<svg id="Layer_2" data-name="Layer 2" xmlns="http://www.w3.org/2000/svg" viewBox="0 0 480 480">
  <g id="Layer_1-2" data-name="Layer 1">
    <path d="M120,45c-41.42,0-75,33.58-75,75v240c0,41.42,33.58,75,75,75h240c41.42,0,75-33.58,75-75V120c0-41.42-33.58-75-75-75H120Zm120,315c-16.19,0-31.91-3.18-46.72-9.44-14.29-6.05-27.12-14.69-38.14-25.71-11.01-11.01-19.66-23.84-25.71-38.14-6.26-14.81-9.44-30.53-9.44-46.72s3.18-31.91,9.44-46.72c6.05-14.29,14.69-27.12,25.71-38.14,11.01-11.01,23.84-19.66,38.14-25.71,14.81-6.26,30.53-9.44,46.72-9.44s31.91,3.18,46.72,9.44c14.29,6.05,27.12,14.69,38.14,25.71,11.01,11.01,19.66,23.84,25.71,38.14,6.26,14.81,9.44,30.53,9.44,46.72s-3.18,31.91-9.44,46.72c-6.05,14.29-14.69,27.12-25.71,38.14-11.01,11.01-23.84,19.66-38.14,25.71-14.81,6.26-30.53,9.44-46.72,9.44Zm0-195c-41.36,0-75,33.64-75,75s33.64,75,75,75,75-33.64,75-75-33.64-75-75-75Zm135-37.5c-12.43,0-22.5-10.07-22.5-22.5s10.07-22.5,22.5-22.5h0c12.43,0,22.5,10.07,22.5,22.5s-10.07,22.5-22.5,22.5Zm-15,352.5H120C53.73,480,0,426.27,0,360V120C0,53.73,53.73,0,120,0h240c66.27,0,120,53.73,120,120v240c0,66.27-53.73,120-120,120Z"/>
  </g>
</svg>