<?xml version="1.0" encoding="utf-8"?>
<!-- Generator: Adobe Illustrator 27.0.0, SVG Export Plug-In . SVG Version: 6.00 Build 0)  -->
<svg version="1.1"
	xmlns="http://www.w3.org/2000/svg"
	xmlns:xlink="http://www.w3.org/1999/xlink" x="0px" y="0px" viewBox="0 0 2160 2162.87" style="enable-background:new 0 0 2160 2162.87;" xml:space="preserve">
	<style type="text/css">
		<!-- .st0{fill:#FFFFFF;} -->
		<!-- .st1{fill:#FF0000;} -->
	</style>
	<g id="Background">
		<!-- <rect id="White_00000131331372750464101690000013220924398932174511_" class="st0" width="2154.17" height="2162.87"/> -->
	</g>
	<g id="YouTube_Icon">
		<g id="Text_00000056402105210375632540000000605454298701433756_">
			<path d="M611.98,1715.88H559.9v-139.22l-64.46-204.71h53.63l36.87,135.1l35.84-135.1h52.08l-61.88,204.71V1715.88z"/>
			<path d="M812.06,1632.35c0,15.13-1.12,27.25-3.35,36.35c-2.24,9.11-5.93,17.27-11.09,24.49c-5.85,7.91-13.58,14.27-23.2,19.08
			c-9.63,4.81-19.94,7.22-30.94,7.22c-11,0-21.32-2.41-30.94-7.22c-9.63-4.81-17.36-11.17-23.2-19.08
			c-5.16-7.22-8.85-15.38-11.09-24.49c-2.24-9.1-3.35-21.22-3.35-36.35v-89.21c0-15.12,1.11-27.24,3.35-36.35
			c2.23-9.1,5.93-17.27,11.09-24.49c5.84-7.9,13.58-14.26,23.2-19.08c9.62-4.81,19.93-7.22,30.94-7.22c11,0,21.31,2.41,30.94,7.22
			c9.62,4.82,17.35,11.17,23.2,19.08c5.16,7.22,8.85,15.39,11.09,24.49c2.23,9.11,3.35,21.23,3.35,36.35V1632.35z M721.82,1641.31
			c0,12.31,1.67,21.28,5.03,26.92c3.35,5.64,8.9,8.46,16.62,8.46c7.72,0,13.26-2.82,16.62-8.46c3.35-5.64,5.04-14.61,5.04-26.92
			v-107.14c0-12.3-1.68-21.28-5.04-26.92c-3.36-5.64-8.9-8.46-16.62-8.46c-7.73,0-13.27,2.82-16.62,8.46
			c-3.36,5.64-5.03,14.62-5.03,26.92V1641.31z"/>
			<path d="M994.08,1715.88h-46.92v-27.84c-5.47,5.85-10.43,10.83-14.86,14.95c-4.45,4.12-8.72,7.4-12.82,9.8
			c-4.1,2.41-8.2,4.12-12.3,5.16c-4.1,1.03-8.37,1.55-12.81,1.55c-11.28,0-19.82-3.95-25.63-11.86c-3.42-4.81-5.64-10.31-6.66-16.5
			c-1.03-6.19-1.54-16.84-1.54-31.97v-199.55h46.92v188.73c0,7.56,0.08,12.55,0.26,14.95c0.17,2.41,0.6,4.47,1.29,6.19
			c1,5.16,4.18,7.73,9.54,7.73c9.04,0,18.58-7.22,28.62-21.66v-195.94h46.92V1715.88z"/>
			<path d="M1103.9,1715.88h-52.08v-295.46h-54.66v-48.47h162.43v48.47h-55.69V1715.88z"/>
			<path d="M1285.41,1715.88h-46.92v-27.84c-5.47,5.85-10.43,10.83-14.86,14.95c-4.45,4.12-8.72,7.4-12.82,9.8
			c-4.1,2.41-8.2,4.12-12.3,5.16c-4.1,1.03-8.37,1.55-12.81,1.55c-11.28,0-19.82-3.95-25.63-11.86c-3.42-4.81-5.64-10.31-6.66-16.5
			c-1.03-6.19-1.54-16.84-1.54-31.97v-199.55h46.92v188.73c0,7.56,0.08,12.55,0.26,14.95c0.17,2.41,0.6,4.47,1.29,6.19
			c1,5.16,4.18,7.73,9.54,7.73c9.04,0,18.58-7.22,28.62-21.66v-195.94h46.92V1715.88z"/>
			<path d="M1382.86,1484.36c8.54-10.31,16.4-17.61,23.58-21.92c7.17-4.29,15.2-6.45,24.1-6.45c15.37,0,26.48,6.88,33.32,20.63
			c1.71,3.44,3.07,6.88,4.1,10.31c1.02,3.44,1.88,7.4,2.56,11.86c0.68,4.47,1.1,9.72,1.28,15.73c0.17,6.02,0.26,13.33,0.26,21.92
			v102.61c0,8.6-0.09,15.9-0.26,21.92c-0.18,6.02-0.6,11.26-1.28,15.73c-0.68,4.47-1.54,8.43-2.56,11.86
			c-1.03,3.44-2.39,6.88-4.1,10.31c-6.84,13.75-17.95,20.63-33.32,20.63c-8.9,0-16.93-2.15-24.1-6.45
			c-7.18-4.29-15.04-11.6-23.58-21.91v24.75h-46.92v-343.93h46.92V1484.36z M1382.86,1665.86c7.7,7.57,15.24,11.34,22.6,11.34
			c8.03,0,13.39-3.09,16.07-9.28c1.72-3.09,2.75-6.36,3.09-9.8c0.34-3.43,0.52-9.62,0.52-18.56v-103.64
			c0-8.94-0.18-15.21-0.52-18.82c-0.35-3.61-1.38-6.78-3.09-9.54c-2.68-6.19-8.04-9.28-16.07-9.28c-7.36,0-14.9,3.79-22.6,11.34
			V1665.86z"/>
			<path d="M1565.39,1596.25v45.09c0,23.57,7.39,35.35,22.16,35.35c14.1,0,21.33-9.62,21.66-28.88v-12.89l0.52-8.25h47.44v11.86
			c0,14.1-0.86,24.77-2.58,32c-1.72,7.24-4.82,14.16-9.28,20.77c-6.19,9.05-14.27,16.01-24.23,20.88
			c-9.98,4.87-20.63,7.31-31.97,7.31c-11.01,0-21.58-2.41-31.71-7.22c-10.14-4.81-18.14-11.17-23.98-19.08
			c-5.5-7.22-9.37-15.47-11.6-24.75c-2.24-9.28-3.35-21.31-3.35-36.1v-89.21c0-15.12,1.11-27.24,3.35-36.35
			c2.23-9.1,5.93-17.27,11.09-24.49c5.84-7.9,13.75-14.26,23.72-19.08c9.97-4.81,20.45-7.22,31.45-7.22c11,0,21.31,2.32,30.94,6.96
			c9.62,4.64,17.53,11.09,23.72,19.34c5.16,7.22,8.85,15.39,11.09,24.49c2.23,9.11,3.35,21.23,3.35,36.35v53.11H1565.39z
			 M1610.25,1534.07c0-12.26-1.77-21.21-5.29-26.84c-3.53-5.62-9.16-8.44-16.89-8.44c-15.12,0-22.68,11.76-22.68,35.27v23.51h44.86
			V1534.07z"/>
		</g>
		<path id="YouTube_Icon_00000171704232287020972450000011969637697434241427_" class="st1" d="M1077.08,355.72
		c-553.61,9.9-588.34-22.3-588.34,412.54c0,433.1,33.21,400.9,588.34,412.52c562.77-16.21,588.34,20.58,588.34-412.52
		C1665.43,325.76,1612.24,362.55,1077.08,355.72z M960.52,945.79V590.02l302.61,178.1L960.52,945.79z"/>
		<g>
		</g>
		<g>
		</g>
		<g>
		</g>
		<g>
		</g>
		<g>
		</g>
	</g>
</svg>
